<mxfile host="Electron" modified="2023-12-12T14:37:10.950Z" agent="Mozilla/5.0 (X11; Linux x86_64) AppleWebKit/537.36 (KHTML, like Gecko) draw.io/21.1.2 Chrome/106.0.5249.199 Electron/21.4.3 Safari/537.36" etag="T347YasxKSYWhxRkW22m" version="21.1.2" type="device">
  <diagram name="PÃ¡gina-1" id="Q39FMLRvRPiPcKhhfCA-">
    <mxGraphModel dx="1430" dy="632" grid="0" gridSize="10" guides="1" tooltips="0" connect="1" arrows="1" fold="1" page="1" pageScale="1" pageWidth="827" pageHeight="1169" background="#191A21" math="0" shadow="0">
      <root>
        <mxCell id="0" />
        <mxCell id="1" parent="0" />
        <mxCell id="lO1GqoiCVpywZdStnk-T-12" style="edgeStyle=orthogonalEdgeStyle;rounded=1;orthogonalLoop=1;jettySize=auto;html=1;entryX=0;entryY=0.5;entryDx=0;entryDy=0;endArrow=block;endFill=1;flowAnimation=1;fillColor=#60a917;strokeColor=#3FCC38;strokeWidth=2;" parent="1" source="lO1GqoiCVpywZdStnk-T-2" target="lO1GqoiCVpywZdStnk-T-8" edge="1">
          <mxGeometry relative="1" as="geometry" />
        </mxCell>
        <mxCell id="lO1GqoiCVpywZdStnk-T-2" value="" style="whiteSpace=wrap;html=1;aspect=fixed;rounded=1;fillColor=#191A21;" parent="1" vertex="1">
          <mxGeometry x="304" y="248" width="80" height="80" as="geometry" />
        </mxCell>
        <mxCell id="lO1GqoiCVpywZdStnk-T-13" style="edgeStyle=orthogonalEdgeStyle;rounded=1;orthogonalLoop=1;jettySize=auto;html=1;entryX=0;entryY=0.5;entryDx=0;entryDy=0;endArrow=block;endFill=1;flowAnimation=1;fillColor=#60a917;strokeColor=#3FCC38;strokeWidth=2;" parent="1" source="lO1GqoiCVpywZdStnk-T-5" target="lO1GqoiCVpywZdStnk-T-2" edge="1">
          <mxGeometry relative="1" as="geometry" />
        </mxCell>
        <mxCell id="lO1GqoiCVpywZdStnk-T-5" value="Producer" style="rounded=1;fontStyle=1;labelBackgroundColor=none;fontColor=default;whiteSpace=wrap;html=1;fillColor=#191A21;" parent="1" vertex="1">
          <mxGeometry x="104" y="248" width="120" height="80" as="geometry" />
        </mxCell>
        <mxCell id="lO1GqoiCVpywZdStnk-T-7" value="" style="shape=image;aspect=fixed;image=data:image/png,iVBORw0KGgoAAAANSUhEUgAAAdoAAAIECAMAAACJ5h9fAAAACXBIWXMAAAsTAAALEwEAmpwYAAABHVBMVEVHcEz////////////////////////9/f3////////////////////////////+/v7////////////////////+/v7////////////////+/v7////////////////////////////////+/v7////////////////////////////////////////////////////////////////+/v7////////+/v7////////////////////////////////////////////////////////+/v7////////////////////////////////////////9/f3////////////////////+/v7////////+/v7+/v7////+/v7///+3K0wvAAAAXHRSTlMAMxgaTbHK4RyA/eOWr+X55AFnS0gWs4Fk4fytTgR/FQW1+HuY5zF99ukC386XMDUbkx5SIIVP3aqayMxig2gdajcLtwh48uxFXxLDiHKkuVi+nIJAIij9B9V4AbFUIMcAABcUSURBVHja7J1ndxNJFoaRrNSWhCw5ydnjgHG2BwfAiQU8O7vMcPYwnD1zdrr+/99Y0uBU3V2p1VXieb7S1cB9dasr3bcePQIAAAAAAAAAAAAAAAAAAAAAAAAAAAAAAAAAAAAAAAAAAAAAAAAAAACAIeGocUQQhozy9NlpLOKvdNY39gnJUNBriu+yfkesEZjAqTTjRCLCEy5RnIaIpwhRmIw/7IcfsEuYwqMbq/GEUAXGdKzKGcEKimasQZd4BcOfsR7zhCwUhKa0zIMC4T+xPm8IWwjEJpC3/vM2NqNC6IYyZz9zRez8ZsxY2pjgeU1krmz8mPB5zFZsQ48A+kvTSlq6ZH+Zt1M2rhJCX8lYhTqtn4o4daeP1WRPGU9LyNK3h8qtlKd2CGJYU1oRT9x5bqnJ1zYsSkl6bTx4dC/p0Z8Io4/UElJ2UvbwLGkbfn+8LH/6PUvJwVDRTMMZ6eM1AhlKf6w9VSKQgfTHiykNytIWI0TSNw70c7DNnnwQ9GQ6TegnOvs/3lE1+HDW+NiGwIzBcr9s5UIQSt+QjXdLJkOvBWIZwAA5s1FH0qhBLIdBWsnHVjD7CUDa08xGq5JWe8TSf2nrmY1kp+SOiaX/0m4bZe0rYjkM31rZetQksRwGaeuMkAOVdsSkEbZhvnGque9jnuowYM4kKnUy2uwibQhIq33K+knbJJS+sS/TaSy1ybmsSYtQBjGOipe0W5wQSe8Y1T1mUeNsVCC8kCr1Tq87Zrs2nB45bic8nXC2tU8cPSShBO+59OFfqR4IiH6CWp2u6nc2jtcN/t6jRgPn+0J6ZEk914Qjn9X9jcc3H2lRb81vIUI+TKWU197az1l0Y3nQF6l1vDCYtP2yMX+4GEXX6258wcZTauu51iAHdi29LEYV/54sCyOM7wecttmU1TJWwfgecV1TsVJWyclC1fgeEyrHrOdtG6VufM8Wkj9dssoBZC3PMS4Bc8qVsbLT2S9fxmS5SCYMlVVwOjjQfimjKae8yWveY2J830YPl7QNJOgovNfoJ0PeDmrB0VxZU+N7vrdO0TW8Hstz6M2JHKecaAVfZdHXwvh+GT1csjyqHvpSDv2Ayco0OO6UlTbf7Yzvp1HDLVtKi45qe+8Y33vGkqt8sjW+30QL9+Jupl0oPqH6mkzj+20nu4Wg+c1N0GVKPdxKxvcH/7KcXYEBl/fXp2ZWtdo7ML6nHjsvrIY1icb3D38ge4K15GKl1cuhms64N+GrS72Jl9LKxfrnn/Kn5zC+D0baiuby4XOM70ORVt4fp1gQrdAjByKtVKgN7R6cg1LeSdvVXzpsqd0jBQVLO+/I+J5VC++kbRms97fZIwhBWtn+0ZzJIgcq+CatzOh8PquRwCAwAGmNErDJ7s+wSnuIO3qQ0orso62LuKOHmbUzmY0iDiSHKe2pUdZeIMOwfmvZ+xkKaevcaVCMtFq7MMJkHoPx/UAYmX75oJRge03Z3mnGxDOZ1aj8uazFiX4xakPWtsHmK8b3eVPJOvQvFHxULwzKhHAtyRe1op/M0uYRSdKL9Hu/ML7PlRcKvl1qVRvSdB/XbUGZrSPU3Z2yL6d+jPG9R2NiEWvyR8rb5JY2K3rdMUW2TmiZlDcnXiP+MaHFO61fgqDG1h7TKudLeQeQXF0/q5Gz9McOGDcugm0rTmpTF6VqlOrlxVRsTkd7+nT/19BPfHIeaSx5aVe9vnz7XSWVFi8rGWtQ1A64YVTYSStuBlNdZfuKztxqFF2nmw+No40dndiahewMxKckSGVj8aVP7rkVNuYWETvqrhKsPOpY2TPEKWxsfJv6m9g1iFPQfDZ36I6tWPBXWW50smPFW2VZh7KjlbtCIp5zs8QFWjQ0FDJk8dGjKsoWsAqVLehcb/LLckSj0jKY23z1j3mBsn6Njj/pen6/gZ4J7mjZcBjOd9aW9PhuSycfGl/OnknPz9jYBZEwWZlvbKvps6vzM2I+O7ikTTNZ6yvI89C+/g9WFwdG2k1rE+Y/iuTE2yRlB0RKd3yQ1fZpal+edFStnHkzDLW0LignB7ib3fppcuv3aRPp1ENTVNK6YUrnVJqkTxZaBxZv6AmGxUUNovpKzbsWW3GltbsVmrPtyy6COKNkMja+k32Ws9KjpeMoio73GguI4Zaq9f53k1OIYfXHfftXEFw/pXUwEONYeKGcmK1VKP08qoS3SFouOtOa2fQHcqXuIuFKfGw9RDhZwc0oJQB/RlG685aEKjD82Qok4YyqrpHPtDz5sbktkCu5tLpGPpM2nmGQC5M65gXa/fr/CHBxVBx9JM0cpSBHLuSaNNxIWyfAxREhLdIibWC8cvStFYrHGaHoEXLFTdYeEuDiSDjNv6r5mgP5a7iXtECO3NTaJBw2ZzWqSNzs2STs6nFVWpEIJ9Im/EC446NI6i4OA0+yX+shLRe7elWONHrIvItqKsuTzJALSYf/dXZsk+pze4TXxyFyvGT/CoJbLG1rYQ6RNqyPrfKKVGIRp+qpyIXGZ5goDa5HVqvBTGmvMBI7adVvfac7Z/0r9HBIzc7QdNa4+ZqQ+RjVuIXLGclXBDxVaP08ubZ9P61dP8UpYQpR8u6RFbRNdY+qJ+7oZ10lstlAFhdMm5tMz2he9vK3sNlOj210yTdt05cdVK7ee3gUeUTRN4qb1hyQak3f1J/P3uXJ3VbqV4mMLiNNrmmbNKqJlCUau9XqrdatJNReW7OY0bPOPZii7moZI3//cRxoOqu+QJt80/aLur2Db8925w+1Da+/XVH6TNsom8J6W54oRvrU3KB+KbEKhZFyrpzlfz3E9q9GzdA2/y65KN4gTl7LjYXDLZiWrPmrLZYYloy5UkIIx9JybYgtT90I8Wma7Dpt8dG15LUTGZ59flXNsbZY6Vri4srEbzV+jq+wpZqzeG1vqjfVb2sSnZl6PWMxpIw4lrx10RvfrDOr6Nr6rtrEmNoWA5gxajeCukvmrS+de7V8yZdNcOzCnraxsE9fP3jZUmrCSuy0y6w35silobLybd200zl/yRq8pzQsP7aMOuXEU8dzmmfq2o7sNUA31eTspLzto+aJuueU/eXJppawInVuUtM9K9mhR86TssblwxlbM1Kh0iqKuvon1kFLXLXMFZl7bkL7gPMqTkV5k7nRJ9rZy0RSQzmDy1NZtXBLqZoibE1p1NoyqEpoU647EHo1SZfajEYUmzcNFiBKSDswLKJs5BUmcKEqSNqGpbRGqc7uz1BIe4gtYJDSiuzDTouYeYaZtTOZjSKlek7wTtpTI2kvkGEYvrXX7P0Mq7Trkkbc0BeCtCWTRsxrfZNW5rjcyiXVYcDSVg1k2kXaEKTtOdribaKCb9Ie6BtSSS8gaaGCb9LKq7L72i3wbvRPWu2zUbWYT20Y0l5q+j+ex0gbiLSP9AqiJ2L9HhxcSSv0pG3qnDE/j0naIrP2tVbjikZpZY0K24HSnbh3oOXw3w56ZMkZqUjVxBNcsF+1OM74TbFk45KXN6+ZrKYYBKKDcyLt2jyttP0ynqqtRqs7p4rV9uCGqSyPCcWjaPr1YfeskZHCLRsKQd9Ue5WlldQIYrhE1dpPyUh+xEZYwRUiA+2Lb/WWywqv27XRFjUcsqxl/aZiJN8xV/YAPdzxD83gKxjJLxsry0lGh8xrh7/q/ufyN3Po4Y6cjOTn+dAWzTOH3kLWPxkMcx3SMJyDRrloix4OMR7unKh0CILvbGFYmDQqzG+3tJYqGBu7xOYKAqWVXg0XbJYXXWK1IKi25qj6wd1BDT8+tDqDnh2FD67A3sAtfUtpFfeBRtatfcbAXdJ+yrTTer2+LeK0Ua5yrlVTXtLkclPnpBx0GT3/fmtH5aUTI/lKTfq3CS42HWjSbt/LRkdG8vsbd68bmK2Sr/mQeMmH5ML4FWdG8keTlYsoejVJZXSOJHTHv2zJHn6OkXzw/XHSAj1G8uHQk+ds4vMYyQfDY6lUW8kNMJIPuj8+T2mAkXwgjGAkP6xcOLITGSOUvmFiCt/mYxsCMwauLxjJB7tgUTJpxLJSCAPkzEantsvI4Ku0OzighilttiX1KkuNYUpbz2wUcUcAWQs+SSuyp6htvrXDOozaZoQcqLSZp9iY14bAKatRw8qZwXowa8hBMG2w0hgbzZhgwJRlGbid2mRR9mtYI5RBjKPSKzRiozt8YOAI3QqtDnXsgdDXNJKfi7mzJeQeOfkc8rVypQF42iMn5O0cviIBMa5hIZ7ky3dGGAPqkSUlARv4TwRGSn3t2M0sqNROqXomiKGl7VfP8uvoej3dIRUHCl+xNZLnypbgBsmqdImgt9j5RrF87DM2RvK4oPqNhZH8AtHzGnMjeWy8fMfUSP4NofOeca4IGFqODZQdI2xB0NNWlgXGUJjXXLqoErJguNJSlu33oHisfkXAFdEazg9ui1CFR1tB2JmfiVOINDaz+mL8i8PlpxRha2y8h01FfjOP6BOaIWAkGrsz0Z1Zo/pjmDhqLB0vHu+VqYwGAAAAAAAAAAAAAAAAAAAAAAAAAAAAAAAAAAAAAAAAAAAApxyV946jKNr48I5YDA8nrfotS6JfCMhn/nr9YTG6w+Jvv4f1X/gwe89CrH77T3//7f7/7/DjD6Ltfx+6q60E9M8vS7wd70i78vDPD38QaQ8yQuM1P4/JjP/u/PvrD/988QeRthGwtGv/b+/sm6LIgTicfd/Z3XFdWFjk/VVWEIEDARERUQFP5bSu0LIq8/2/xrFn3SHSnUlndpLM0L9/3QndPpmkO+lJ4LM649AGjNZ3YcewMtqso20z2pyibUhGm0+0TyWjzSfax5LR5hStZLQ5RRtEjDanaCW/tTlFu6e+OIbRZhdtFWE6uX08Vr+6YrTZRUu4spjRZgptCQyiuoLRZh7tK4jsN8Fos482JFwgz2gzhfZRTFTMaDOLFphqPzLaXKAFblTsMdqcopVzjDavaHcZbV7RCkbLaBltGvr56Ubyi2k9RTvzeuwkCIKTsd17hXav1bwd0j4MSjlCW+odRrdSssnK9L1Au4xsnIebuUA7uOIe9HAiS2gPYEY/FH8gUO2sRr96fwn8uxoo0qg5WqTFOv5EMVQVfFRL6nT8jTdou8jbhzc/LqMYEDdwZ9WmaKM1r7Loww120AdG47yTKx2VA1u+oN2BX5JDtPEFLRR1/P22i/Y73B76as1FOuZsKByo+4IWNr2B/fxYl0XgB1pktkHjoSe6Bq35jnYGtruNtdzUZiFXfEA7DrdWTtpx/+8d3qI9pZHdkxT13aNFwr0u4l+V5F/gNdoz0GbscIFlSZRrtEiE+AJ2711EdO8vj9Ei38Wdwq0eUskO3luXaOEIUVZoSZI6EfAUbQ02eAZutEF3/Xq+/ewQLSmr2zFw7zrO9hPtFIls28R1+eGLM7TzhOpXQ7LXU46XaN/GV+knGq1+6pMztBrtJPfv0ke0F7CtO3CLoRye7KDtU2L/0yG65xztDinhO5ZZQ9sgZXX9HKHdiihkOzJraA8jNNMG9FLmB+0aLZWX7tHSdn5CUhxRlvlBe0pK5UUrxpf9p0tBECyFNYMXMJX92hfwH35n1nOj5vbg3MD3K+3If7RnpFT+D5UfjdVbhRXlQw/QdklZnXo4nrq1kVBabfiNtk3boH2Edmfwma5rtDs0siWFqV2TZMEhWnjcPMAam8bLDWib+7bQkuZZ1WYWFnqEvqKdIrqOuvAYN2DKHdr5iJKvC7FJ7biDAhs/0Y7TNmjRl3ZSaUHZGVraBi3+0h4p/fvoIdojIlnM9YM4Gxyh7RPJ1hEj4+oyp7xDW5aUVB5HFEsWq99IGS0cwF7gZobE6UljwnWD9g3ZkQWD0TjmvU0RLbwI9VZhJDwz72m4d+AVWnjBMJon89GyomsdbUjL6tBRbEnLv7ZHaN/REj48fhzTM6NqGe1bMlnYxIaeex2P0MKWrKlaalGWrRJtmSZHe2EQFUTGY5IAy+cdoQWDx2grPdfFhD20S9gilNLAAvTEhkjWdW2j/SFIW+8q41dFMt9TQftBULO6gZbj9pjUGvUC7cISMeHDp1qCIV1raLcjA7Lg8viCSNh1baOVJmTFKjUs0fE9FbTkfB01j+LeUeQr2qO4hh4ADxUoloRO0Rotq4ikXdcHtOMi7V4Nxim20Crz9X81Bjx0RPKv4Sfa0KhTTtFMidyhnYk17jnwVIfk3qyXaC/NxpsRmilNZ2g1jFtKOiiB23vu0Wq0sws8tkUzZdsV2kMN417qGkfq/B4MyGbtEE157uytDYyGlO1coK3aQDvnbq6NP+jobjv4kZ+I9v2MkEcM2tkf0iaUjeTHAG1spq/RhBd5bWdYXPxE2zTgMpY9tOvfoWLT9NECt0WkgvbMZLqtmYzi3qH9KAym2yEMyM8svbUX+5IezgPtPMvcXBvtiwp9uh1CGNWz9NaeCIPpFmjnVfYi5Bqy99pJGe2Upbd2Fa6FqVKXyLcziRYyQz3dDmHJYtJelUWVPCyFBqGXf6tRg//PHrlfA7+fSNyrU6uNImcBQeJRKfClorFJ7ddGCx1Odn4GaKHvwZXDUjkx2qY3dcjUurf1pL5vWy1WXSUOS1AssZx0UHKEFryNfRFvqJJ0K95yiTl10S3pfnTXH7Twx1x48elIwhH5mWW01OkW+nWR4F/DI7RikVQitZWwWzdto52mZQHVZLVfRekTWviAknlKtx5P6HqqX+qFpOl2JFnXfegVWrjse5GQ1BN8f2QfLbwwM0LoupH2jDMn/UIL06pQurVuWo98P53ygQekLAD8se7uj/QNrSBVJJtt9CpdTxltjzIshdJ8WFryD22BMt2abfSiSbEFtHDshgxLm8Z1VfiBFi4PF2oRKu0nIvLKs1DkWTbQkoYl+NPpWfMxyfGRYIuEwBc2P/aTC+zkVhtoKcMScjBcN9a/vp9o4QzoMWE2iuLYKu7vSv8gvwphukWMPDIm6/j4zQn96KFuVDCoOjgqfbTwMFshdN2YlQvlwVGOD80FM6AGIS+XqhMfSsrzhS2gJUy3aNftl8ixsRdoYd9bxB46KkgvgkW0Pf3pFr+PC3lxR2MKKV2jhUONAs13aGO+GHs8pQ20cAbUpoW613CLeps9XqFFDjmm+i5lM7hxv1MONY4MtoKWMCxtqIyNwvJNEl8MdC6ec39jSFt7uu3FerNfq9XWpebtVnbQEoalOIMjuX7t377UlHu0a/r92uT2Jtdo4QwIbLMwVPd8uMJpRLtfz2cRLZwBgcNSK29okdPYCHs4fqPt6A9Lk3lDSziAcTyDaJGFGaPpNnNo4ZQVPPLrMDLz88QhWnhhBmx2zRDjJ1/RIjfSloYXSsVdl5guWvhlBKfbN2ZoPb5QvD2k7BZR7CWnKaMt6E+3X0z8ew3Fal7fFQ9XyByQPW/HXk2cMlok9i0Mqe+OenyhOJYBBZS9TRVZ12jhrWm4ZfKF4pfCa7RIBgTveuyRyTpHu0YYlrCzuVXr5z6jpR1B36TMsz6gRTIg5OeUy1x3hPdoi5R+re98IPxAi2RA2Gas7n2njXnhP1okA0Irv1Z1PH/4X+HvrCW0ikI10rAkSloD09+KxlNFe3X3750Lqu/fhDHc6CYE/aRrCgXtObB2gLu3CYZHZ/gwthLn37jS7Kt00dZ+0/lXxc//7Nfuqq8qSB1VBZPVX/evPy9qmhLdsQA/Kf7r+e+/XfyssHbjyV33VlSf93c2NKYazOx00drQcRXc2XwwInKh0nJDQhvQlU1xH9SZbq20b/xfD1+VcuVfsfdy/Re6zdaeuG/ardd38+3frmCxWCwWi8VisVgsFovFYrFYLBaLxWKxWCwWi8VisVgsFovFYrFYLBaLxWKxWCwWi8VisVgsFovFYrFYLBaLxWKxWCwWi8Vipad/APRNOrLGAkGlAAAAAElFTkSuQmCC;rounded=1;" parent="1" vertex="1">
          <mxGeometry x="316.45" y="257" width="55.11" height="60" as="geometry" />
        </mxCell>
        <mxCell id="lO1GqoiCVpywZdStnk-T-41" style="edgeStyle=orthogonalEdgeStyle;rounded=1;orthogonalLoop=1;jettySize=auto;html=1;endArrow=block;endFill=1;flowAnimation=1;fillColor=#60a917;strokeColor=#3FCC38;strokeWidth=2;" parent="1" source="lO1GqoiCVpywZdStnk-T-8" target="lO1GqoiCVpywZdStnk-T-14" edge="1">
          <mxGeometry relative="1" as="geometry" />
        </mxCell>
        <mxCell id="lO1GqoiCVpywZdStnk-T-8" value="" style="rounded=1;whiteSpace=wrap;html=1;fillColor=#191A21;" parent="1" vertex="1">
          <mxGeometry x="464" y="208" width="120" height="160" as="geometry" />
        </mxCell>
        <mxCell id="lO1GqoiCVpywZdStnk-T-9" value="Broker A" style="rounded=1;whiteSpace=wrap;html=1;fontSize=10;fontStyle=1;fillColor=#191A21;" parent="1" vertex="1">
          <mxGeometry x="474" y="218" width="100" height="40" as="geometry" />
        </mxCell>
        <mxCell id="lO1GqoiCVpywZdStnk-T-44" style="edgeStyle=orthogonalEdgeStyle;rounded=1;orthogonalLoop=1;jettySize=auto;html=1;entryX=1;entryY=0.5;entryDx=0;entryDy=0;endArrow=block;endFill=1;" parent="1" edge="1">
          <mxGeometry relative="1" as="geometry">
            <mxPoint x="664" y="278" as="sourcePoint" />
            <mxPoint x="584" y="278" as="targetPoint" />
          </mxGeometry>
        </mxCell>
        <mxCell id="lO1GqoiCVpywZdStnk-T-14" value="Consumer" style="rounded=1;whiteSpace=wrap;html=1;fontStyle=1;fillColor=#191A21;" parent="1" vertex="1">
          <mxGeometry x="664" y="248" width="120" height="80" as="geometry" />
        </mxCell>
        <mxCell id="lO1GqoiCVpywZdStnk-T-24" value="" style="html=1;verticalLabelPosition=bottom;align=center;labelBackgroundColor=#ffffff;verticalAlign=top;strokeWidth=2;shadow=0;dashed=0;shape=mxgraph.ios7.icons.data;rounded=1;" parent="1" vertex="1">
          <mxGeometry x="561" y="242" width="16" height="20" as="geometry" />
        </mxCell>
        <mxCell id="lO1GqoiCVpywZdStnk-T-30" value="Broker B" style="rounded=1;whiteSpace=wrap;html=1;fontSize=10;fontStyle=1;fillColor=#191A21;" parent="1" vertex="1">
          <mxGeometry x="474" y="268" width="100" height="40" as="geometry" />
        </mxCell>
        <mxCell id="lO1GqoiCVpywZdStnk-T-31" value="" style="html=1;verticalLabelPosition=bottom;align=center;labelBackgroundColor=#ffffff;verticalAlign=top;strokeWidth=2;shadow=0;dashed=0;shape=mxgraph.ios7.icons.data;fillColor=default;strokeColor=default;rounded=1;" parent="1" vertex="1">
          <mxGeometry x="561" y="292" width="16" height="20" as="geometry" />
        </mxCell>
        <mxCell id="lO1GqoiCVpywZdStnk-T-32" value="Broker C" style="rounded=1;whiteSpace=wrap;html=1;fontSize=10;fontStyle=1;fillColor=#191A21;" parent="1" vertex="1">
          <mxGeometry x="474" y="318" width="100" height="40" as="geometry" />
        </mxCell>
        <mxCell id="lO1GqoiCVpywZdStnk-T-33" value="" style="html=1;verticalLabelPosition=bottom;align=center;labelBackgroundColor=#ffffff;verticalAlign=top;strokeWidth=2;shadow=0;dashed=0;shape=mxgraph.ios7.icons.data;rounded=1;" parent="1" vertex="1">
          <mxGeometry x="561" y="342" width="16" height="20" as="geometry" />
        </mxCell>
        <mxCell id="lO1GqoiCVpywZdStnk-T-37" value="" style="verticalLabelPosition=bottom;html=1;verticalAlign=top;align=center;strokeColor=none;fillColor=#3fe52a;shape=mxgraph.azure.cloud_services_configuration_file;pointerEvents=1;rounded=1;" parent="1" vertex="1">
          <mxGeometry x="254" y="258" width="19" height="20" as="geometry" />
        </mxCell>
        <mxCell id="lO1GqoiCVpywZdStnk-T-38" value="" style="verticalLabelPosition=bottom;html=1;verticalAlign=top;align=center;strokeColor=none;fillColor=#3FCC38;shape=mxgraph.azure.cloud_services_configuration_file;pointerEvents=1;rounded=1;" parent="1" vertex="1">
          <mxGeometry x="414" y="258" width="19" height="20" as="geometry" />
        </mxCell>
        <mxCell id="lO1GqoiCVpywZdStnk-T-39" value="" style="verticalLabelPosition=bottom;html=1;verticalAlign=top;align=center;strokeColor=none;fillColor=#3FCC38;shape=mxgraph.azure.cloud_services_configuration_file;pointerEvents=1;rounded=1;" parent="1" vertex="1">
          <mxGeometry x="617" y="298" width="19" height="20" as="geometry" />
        </mxCell>
        <mxCell id="lO1GqoiCVpywZdStnk-T-42" value="1" style="ellipse;whiteSpace=wrap;html=1;aspect=fixed;fontSize=6;rounded=1;" parent="1" vertex="1">
          <mxGeometry x="649" y="263" width="10" height="10" as="geometry" />
        </mxCell>
        <mxCell id="lO1GqoiCVpywZdStnk-T-43" value="2" style="ellipse;whiteSpace=wrap;html=1;aspect=fixed;fontSize=6;rounded=1;" parent="1" vertex="1">
          <mxGeometry x="589" y="292" width="10" height="10" as="geometry" />
        </mxCell>
        <mxCell id="lO1GqoiCVpywZdStnk-T-46" value="enÃ©as" style="text;html=1;strokeColor=none;fillColor=none;align=center;verticalAlign=middle;whiteSpace=wrap;rounded=1;fontSize=7;" parent="1" vertex="1">
          <mxGeometry x="62" y="381" width="60" height="30" as="geometry" />
        </mxCell>
      </root>
    </mxGraphModel>
  </diagram>
</mxfile>
